 <svg xmlns="http://www.w3.org/2000/svg" style="isolation:isolate" width="100" height="64">
    <path fill="#323436" d="M18.823 28.098v-13.58q0-1.283-.353-1.899-.352-.616-1.408-.616h-.503V11.5h2.264q.93 0 1.395.239.466.239.667.868.201.628.201 1.911v4.526h7.544V11.5h2.264v13.58q0 1.283.352 1.899.352.616 1.408.616h.503v.503h-2.263q-.931 0-1.396-.239-.465-.239-.666-.868-.202-.628-.202-1.911v-5.03h-7.544v8.048h-2.263zm21.049 0V12.506h-2.264q-3.143 0-3.143 2.892h-.503v-1.886q0-2.012 2.137-2.012h11.694v1.006h-5.658v15.592h-2.263zm29.373 1.131q-1.811 0-2.817-.553-1.006-.553-1.421-1.722-.415-1.17-.415-3.131v-9.682l-6.287 13.957h-.503l-6.538-14.209v14.209h-1.006V11.5h2.389l6.035 13.077 5.91-13.077h2.264v12.323q0 2.338.591 3.621t1.798 1.283v.502zm2.867-1.131v-13.58q0-1.283-.353-1.899-.352-.616-1.408-.616h-.503V11.5h2.264q.93 0 1.395.239.466.239.667.868.201.628.201 1.911v12.574h8.927v1.006h-11.19zM11.305 53.875v-15.55q0-1.497-.41-2.215-.411-.719-1.643-.719h-.294v-.88h7.922q3.697 0 6.176 1.026 2.479 1.027 2.479 4.108 0 1.35-1.071 2.538-1.071 1.188-3.007 1.687 4.958.499 4.958 4.636 0 3.051-2.435 4.21-2.435 1.159-6.22 1.159h-6.455zm3.814-10.592h2.201q1.907 0 3.007-.895t1.1-2.89q0-2.024-1.305-2.919-1.306-.895-3.242-.895-.792 0-1.232.118l-.529.088v7.393zm2.054 9.418h.147q2.435 0 3.711-1.056 1.277-1.056 1.277-2.993 0-4.049-4.988-4.049h-2.201v7.805q.323.117.587.146.646.147 1.467.147zm21.007 1.76q-2.846 0-5.061-1.349-2.215-1.35-3.418-3.697-1.203-2.347-1.203-5.222 0-2.876 1.203-5.223t3.418-3.697q2.215-1.349 5.061-1.349t5.047 1.349q2.2 1.35 3.403 3.697 1.203 2.347 1.203 5.223 0 2.875-1.203 5.222-1.203 2.347-3.403 3.697-2.201 1.349-5.047 1.349zm0-1.32q2.67 0 4.137-2.332 1.467-2.333 1.467-6.616 0-4.284-1.467-6.616-1.467-2.333-4.137-2.333-2.67 0-4.122 2.333-1.452 2.332-1.452 6.616 0 4.283 1.452 6.616 1.452 2.332 4.122 2.332zm21.506 1.32q-2.846 0-5.061-1.349-2.215-1.35-3.418-3.697-1.203-2.347-1.203-5.222 0-2.876 1.203-5.223t3.418-3.697q2.215-1.349 5.061-1.349t5.047 1.349q2.2 1.35 3.403 3.697 1.203 2.347 1.203 5.223 0 2.875-1.203 5.222-1.203 2.347-3.403 3.697-2.201 1.349-5.047 1.349zm0-1.32q2.67 0 4.137-2.332 1.467-2.333 1.467-6.616 0-4.284-1.467-6.616-1.467-2.333-4.137-2.333-2.67 0-4.122 2.333-1.452 2.332-1.452 6.616 0 4.283 1.452 6.616 1.452 2.332 4.122 2.332zm29.076 1.027q-1.849 0-3.536-.748t-3.623-2.773l-4.724-4.929v8.157h-3.814l-.029-15.55q0-1.497-.411-2.215-.411-.719-1.643-.719h-.293v-.88h3.52q1.027 0 1.599.352.572.352.822 1.173.249.822.249 2.289v5.574l5.076-6.308q1.086-1.408 2.332-2.244 1.247-.836 2.861-.836h2.054v1.026q-1.819 0-3.125.455-1.305.455-2.244 1.629l-4.372 5.398 6.778 7.042q1.085 1.202 2.449 2.097 1.365.895 2.216 1.013v.704q-.881.293-2.142.293zM0 31h100v.997H0V31zm0 26h100v4H0v-4z" />
</svg>