<?xml version="1.0" encoding="UTF-8" standalone="no"?><!-- Generator: Gravit.io --><svg xmlns="http://www.w3.org/2000/svg" xmlns:xlink="http://www.w3.org/1999/xlink" style="isolation:isolate" viewBox="0 0 245 135" width="245pt" height="135pt"><defs><clipPath id="_clipPath_IhSrxEUt66rIHS4nejanRLWXVZkBRHc7"><rect width="245" height="135"/></clipPath></defs><g clip-path="url(#_clipPath_IhSrxEUt66rIHS4nejanRLWXVZkBRHc7)"><path d=" M 41.632 57.8 L 41.632 18.92 L 41.632 18.92 Q 41.632 15.248 40.624 13.484 L 40.624 13.484 L 40.624 13.484 Q 39.616 11.72 36.592 11.72 L 36.592 11.72 L 35.152 11.72 L 35.152 10.28 L 41.632 10.28 L 41.632 10.28 Q 44.296 10.28 45.628 10.964 L 45.628 10.964 L 45.628 10.964 Q 46.96 11.648 47.536 13.448 L 47.536 13.448 L 47.536 13.448 Q 48.112 15.248 48.112 18.92 L 48.112 18.92 L 48.112 31.88 L 69.712 31.88 L 69.712 10.28 L 76.192 10.28 L 76.192 49.16 L 76.192 49.16 Q 76.192 52.832 77.2 54.596 L 77.2 54.596 L 77.2 54.596 Q 78.208 56.36 81.232 56.36 L 81.232 56.36 L 82.672 56.36 L 82.672 57.8 L 76.192 57.8 L 76.192 57.8 Q 73.528 57.8 72.196 57.116 L 72.196 57.116 L 72.196 57.116 Q 70.864 56.432 70.288 54.632 L 70.288 54.632 L 70.288 54.632 Q 69.712 52.832 69.712 49.16 L 69.712 49.16 L 69.712 34.76 L 48.112 34.76 L 48.112 57.8 L 41.632 57.8 Z  M 101.896 57.8 L 101.896 13.16 L 95.416 13.16 L 95.416 13.16 Q 86.416 13.16 86.416 21.44 L 86.416 21.44 L 84.976 21.44 L 84.976 16.04 L 84.976 16.04 Q 84.976 10.28 91.096 10.28 L 91.096 10.28 L 124.576 10.28 L 124.576 13.16 L 108.376 13.16 L 108.376 57.8 L 101.896 57.8 Z  M 185.992 61.04 L 185.992 61.04 Q 180.808 61.04 177.928 59.456 L 177.928 59.456 L 177.928 59.456 Q 175.048 57.872 173.86 54.524 L 173.86 54.524 L 173.86 54.524 Q 172.672 51.176 172.672 45.56 L 172.672 45.56 L 172.672 17.84 L 154.672 57.8 L 153.232 57.8 L 134.512 17.12 L 134.512 57.8 L 131.632 57.8 L 131.632 10.28 L 138.472 10.28 L 155.752 47.72 L 172.672 10.28 L 179.152 10.28 L 179.152 45.56 L 179.152 45.56 Q 179.152 52.256 180.844 55.928 L 180.844 55.928 L 180.844 55.928 Q 182.536 59.6 185.992 59.6 L 185.992 59.6 L 185.992 61.04 Z  M 194.2 57.8 L 194.2 18.92 L 194.2 18.92 Q 194.2 15.248 193.192 13.484 L 193.192 13.484 L 193.192 13.484 Q 192.184 11.72 189.16 11.72 L 189.16 11.72 L 187.72 11.72 L 187.72 10.28 L 194.2 10.28 L 194.2 10.28 Q 196.864 10.28 198.196 10.964 L 198.196 10.964 L 198.196 10.964 Q 199.528 11.648 200.104 13.448 L 200.104 13.448 L 200.104 13.448 Q 200.68 15.248 200.68 18.92 L 200.68 18.92 L 200.68 54.92 L 226.24 54.92 L 226.24 57.8 L 194.2 57.8 Z  M 17.088 110.2 L 17.088 84.28 L 17.088 84.28 Q 17.088 81.832 16.416 80.656 L 16.416 80.656 L 16.416 80.656 Q 15.744 79.48 13.728 79.48 L 13.728 79.48 L 12.768 79.48 L 12.768 78.52 L 25.248 78.52 L 25.248 78.52 Q 29.856 78.52 33.552 80.488 L 33.552 80.488 L 33.552 80.488 Q 37.248 82.456 37.248 88.12 L 37.248 88.12 L 37.248 88.12 Q 37.248 91.864 35.328 93.88 L 35.328 93.88 L 35.328 93.88 Q 33.408 95.896 31.032 96.568 L 31.032 96.568 L 31.032 96.568 Q 28.656 97.24 26.688 97.24 L 26.688 97.24 L 21.408 97.24 L 21.408 110.2 L 17.088 110.2 Z  M 25.008 95.56 L 25.008 95.56 Q 26.544 95.56 28.272 94.768 L 28.272 94.768 L 28.272 94.768 Q 30 93.976 31.224 92.248 L 31.224 92.248 L 31.224 92.248 Q 32.448 90.52 32.448 87.88 L 32.448 87.88 L 32.448 87.88 Q 32.448 85.24 31.224 83.512 L 31.224 83.512 L 31.224 83.512 Q 30 81.784 28.272 80.992 L 28.272 80.992 L 28.272 80.992 Q 26.544 80.2 25.008 80.2 L 25.008 80.2 L 25.008 80.2 Q 23.328 80.2 21.408 80.68 L 21.408 80.68 L 21.408 95.08 L 21.408 95.08 Q 23.328 95.56 25.008 95.56 L 25.008 95.56 Z  M 64.704 110.68 L 64.704 110.68 Q 62.16 110.68 60.264 109.168 L 60.264 109.168 L 60.264 109.168 Q 58.368 107.656 56.064 103.72 L 56.064 103.72 L 51.264 95.56 L 47.904 95.56 L 47.904 110.2 L 43.584 110.2 L 43.584 84.28 L 43.584 84.28 Q 43.584 81.832 42.912 80.656 L 42.912 80.656 L 42.912 80.656 Q 42.24 79.48 40.224 79.48 L 40.224 79.48 L 39.264 79.48 L 39.264 78.52 L 51.744 78.52 L 51.744 78.52 Q 56.304 78.52 60.024 80.32 L 60.024 80.32 L 60.024 80.32 Q 63.744 82.12 63.744 87.16 L 63.744 87.16 L 63.744 87.16 Q 63.744 93.544 56.064 95.32 L 56.064 95.32 L 61.104 103.72 L 61.104 103.72 Q 62.88 106.696 64.296 107.872 L 64.296 107.872 L 64.296 107.872 Q 65.712 109.048 67.584 109.24 L 67.584 109.24 L 67.584 110.2 L 67.584 110.2 Q 67.152 110.392 66.36 110.536 L 66.36 110.536 L 66.36 110.536 Q 65.568 110.68 64.704 110.68 L 64.704 110.68 Z  M 51.504 93.88 L 51.504 93.88 Q 52.992 93.88 54.744 93.16 L 54.744 93.16 L 54.744 93.16 Q 56.496 92.44 57.72 90.904 L 57.72 90.904 L 57.72 90.904 Q 58.944 89.368 58.944 87.16 L 58.944 87.16 L 58.944 87.16 Q 58.944 84.808 57.72 83.248 L 57.72 83.248 L 57.72 83.248 Q 56.496 81.688 54.744 80.944 L 54.744 80.944 L 54.744 80.944 Q 52.992 80.2 51.504 80.2 L 51.504 80.2 L 51.504 80.2 Q 49.824 80.2 47.904 80.68 L 47.904 80.68 L 47.904 93.4 L 47.904 93.4 Q 49.824 93.88 51.504 93.88 L 51.504 93.88 Z  M 96.912 110.44 L 96.912 110.44 Q 94.608 110.44 92.352 109.168 L 92.352 109.168 L 92.352 109.168 Q 90.096 107.896 88.752 104.2 L 88.752 104.2 L 87.552 101.08 L 74.112 101.08 L 70.272 110.2 L 68.112 110.2 L 81.552 78.52 L 82.992 78.52 L 93.552 104.2 L 93.552 104.2 Q 94.752 106.984 95.808 108.016 L 95.808 108.016 L 95.808 108.016 Q 96.864 109.048 98.832 109.24 L 98.832 109.24 L 98.832 110.2 L 98.832 110.2 Q 97.968 110.44 96.912 110.44 L 96.912 110.44 Z  M 80.832 85.24 L 74.832 99.16 L 86.592 99.16 L 80.832 85.24 Z  M 113.856 111.16 L 113.856 111.16 Q 109.392 111.16 106.008 109 L 106.008 109 L 106.008 109 Q 102.624 106.84 100.8 103.12 L 100.8 103.12 L 100.8 103.12 Q 98.976 99.4 98.976 94.84 L 98.976 94.84 L 98.976 94.84 Q 98.976 90.136 100.968 86.152 L 100.968 86.152 L 100.968 86.152 Q 102.96 82.168 106.392 79.864 L 106.392 79.864 L 106.392 79.864 Q 109.824 77.56 113.856 77.56 L 113.856 77.56 L 113.856 77.56 Q 117.696 77.56 120.6 78.64 L 120.6 78.64 L 120.6 78.64 Q 123.504 79.72 124.896 81.4 L 124.896 81.4 L 124.896 81.4 Q 125.712 82.408 125.904 84.064 L 125.904 84.064 L 125.904 84.064 Q 126.096 85.72 126.096 88.6 L 126.096 88.6 L 125.136 88.6 L 125.136 88.6 Q 124.224 83.944 121.776 81.712 L 121.776 81.712 L 121.776 81.712 Q 119.328 79.48 115.296 79.48 L 115.296 79.48 L 115.296 79.48 Q 110.112 79.48 106.944 83.128 L 106.944 83.128 L 106.944 83.128 Q 103.776 86.776 103.776 94.84 L 103.776 94.84 L 103.776 94.84 Q 103.776 98.632 105 101.896 L 105 101.896 L 105 101.896 Q 106.224 105.16 108.816 107.2 L 108.816 107.2 L 108.816 107.2 Q 111.408 109.24 115.296 109.24 L 115.296 109.24 L 115.296 109.24 Q 118.8 109.24 121.416 107.56 L 121.416 107.56 L 121.416 107.56 Q 124.032 105.88 126.096 102.52 L 126.096 102.52 L 127.056 103.24 L 127.056 103.24 Q 124.848 107.56 121.608 109.36 L 121.608 109.36 L 121.608 109.36 Q 118.368 111.16 113.856 111.16 L 113.856 111.16 Z  M 141.072 110.2 L 141.072 80.44 L 136.752 80.44 L 136.752 80.44 Q 130.752 80.44 130.752 85.96 L 130.752 85.96 L 129.792 85.96 L 129.792 82.36 L 129.792 82.36 Q 129.792 78.52 133.872 78.52 L 133.872 78.52 L 156.192 78.52 L 156.192 80.44 L 145.392 80.44 L 145.392 110.2 L 141.072 110.2 Z  M 165.36 110.2 L 165.36 110.2 Q 163.584 110.2 162.696 109.744 L 162.696 109.744 L 162.696 109.744 Q 161.808 109.288 161.424 108.088 L 161.424 108.088 L 161.424 108.088 Q 161.04 106.888 161.04 104.44 L 161.04 104.44 L 161.04 78.52 L 165.36 78.52 L 165.36 104.44 L 165.36 104.44 Q 165.36 106.888 166.032 108.064 L 166.032 108.064 L 166.032 108.064 Q 166.704 109.24 168.72 109.24 L 168.72 109.24 L 169.68 109.24 L 169.68 110.2 L 165.36 110.2 Z  M 187.104 111.16 L 187.104 111.16 Q 182.64 111.16 179.256 109 L 179.256 109 L 179.256 109 Q 175.872 106.84 174.048 103.12 L 174.048 103.12 L 174.048 103.12 Q 172.224 99.4 172.224 94.84 L 172.224 94.84 L 172.224 94.84 Q 172.224 90.136 174.216 86.152 L 174.216 86.152 L 174.216 86.152 Q 176.208 82.168 179.64 79.864 L 179.64 79.864 L 179.64 79.864 Q 183.072 77.56 187.104 77.56 L 187.104 77.56 L 187.104 77.56 Q 190.944 77.56 193.848 78.64 L 193.848 78.64 L 193.848 78.64 Q 196.752 79.72 198.144 81.4 L 198.144 81.4 L 198.144 81.4 Q 198.96 82.408 199.152 84.064 L 199.152 84.064 L 199.152 84.064 Q 199.344 85.72 199.344 88.6 L 199.344 88.6 L 198.384 88.6 L 198.384 88.6 Q 197.472 83.944 195.024 81.712 L 195.024 81.712 L 195.024 81.712 Q 192.576 79.48 188.544 79.48 L 188.544 79.48 L 188.544 79.48 Q 183.36 79.48 180.192 83.128 L 180.192 83.128 L 180.192 83.128 Q 177.024 86.776 177.024 94.84 L 177.024 94.84 L 177.024 94.84 Q 177.024 98.632 178.248 101.896 L 178.248 101.896 L 178.248 101.896 Q 179.472 105.16 182.064 107.2 L 182.064 107.2 L 182.064 107.2 Q 184.656 109.24 188.544 109.24 L 188.544 109.24 L 188.544 109.24 Q 192.048 109.24 194.664 107.56 L 194.664 107.56 L 194.664 107.56 Q 197.28 105.88 199.344 102.52 L 199.344 102.52 L 200.304 103.24 L 200.304 103.24 Q 198.096 107.56 194.856 109.36 L 194.856 109.36 L 194.856 109.36 Q 191.616 111.16 187.104 111.16 L 187.104 111.16 Z  M 207.12 110.2 L 207.12 84.28 L 207.12 84.28 Q 207.12 81.832 206.448 80.656 L 206.448 80.656 L 206.448 80.656 Q 205.776 79.48 203.76 79.48 L 203.76 79.48 L 202.8 79.48 L 202.8 78.52 L 223.248 78.52 L 223.248 78.52 Q 227.328 78.52 227.328 82.36 L 227.328 82.36 L 227.328 85.96 L 226.368 85.96 L 226.368 85.96 Q 226.368 80.44 220.368 80.44 L 220.368 80.44 L 211.44 80.44 L 211.44 92.92 L 224.4 92.92 L 224.4 94.84 L 211.44 94.84 L 211.44 108.28 L 219.84 108.28 L 219.84 108.28 Q 223.152 108.28 225.024 107.08 L 225.024 107.08 L 225.024 107.08 Q 226.896 105.88 228 103 L 228 103 L 228.96 103.24 L 227.28 107.8 L 227.28 107.8 Q 226.416 110.2 223.68 110.2 L 223.68 110.2 L 207.12 110.2 Z  M 0 67 L 245 67 L 245 68 L 0 68 L 0 67 Z  M 0 120 L 245 120 L 245 125 L 0 125 L 0 120 Z " fill-rule="evenodd" fill="rgb(50,52,54)"/></g></svg>