<?xml version="1.0" standalone="no"?>
<!DOCTYPE svg PUBLIC "-//W3C//DTD SVG 20010904//EN"
 "http://www.w3.org/TR/2001/REC-SVG-20010904/DTD/svg10.dtd">
<svg version="1.0" xmlns="http://www.w3.org/2000/svg"
 width="700.000000pt" height="700.000000pt" viewBox="0 0 700.000000 700.000000"
 preserveAspectRatio="xMidYMid meet">
<metadata>
Created by potrace 1.11, written by Peter Selinger 2001-2013
</metadata>
<g transform="translate(0.000000,700.000000) scale(0.100000,-0.100000)"
fill="#000000" stroke="none">
<path d="M16 6782 c-15 -3 -16 -16 -14 -110 l3 -107 3498 -1 3497 -1 0 109 0
108 -82 0 c-819 3 -6889 4 -6902 2z"/>
<path d="M1058 5972 c-16 -2 -28 -8 -29 -13 0 -5 -1 -25 -1 -44 0 -19 1 -48 1
-63 l1 -29 119 -1 c378 -4 505 -135 546 -562 2 -25 5 -987 5 -2137 l1 -2093
79 0 c44 0 177 0 295 0 118 0 234 0 258 0 l42 0 0 1178 c0 647 1 1186 3 1197
3 20 7 20 1117 20 612 0 1117 -3 1121 -8 4 -4 9 -397 10 -875 1 -477 5 -889 8
-917 19 -163 39 -250 81 -340 69 -153 181 -219 417 -249 49 -7 827 -10 833 -4
3 3 8 108 6 135 -1 10 -30 13 -113 12 -194 -1 -292 25 -390 104 -83 66 -145
244 -164 472 -3 39 -6 1004 -6 2145 l0 2075 -321 -2 c-177 -1 -329 -2 -338 -2
-14 -1 -15 -113 -14 -1113 0 -612 -1 -1118 -2 -1123 -2 -7 -382 -10 -1121 -9
-614 1 -1119 2 -1122 3 -3 0 -5 335 -5 744 -1 676 -5 898 -20 997 -14 91 -40
181 -72 249 -75 158 -198 228 -438 247 -76 6 -742 11 -787 6z"/>
<path d="M0 438 l0 -218 3500 0 3500 0 0 218 0 219 -3500 0 -3500 0 0 -219z"/>
</g>
</svg>
