<?xml version="1.0" standalone="no"?>
<!DOCTYPE svg PUBLIC "-//W3C//DTD SVG 20010904//EN"
 "http://www.w3.org/TR/2001/REC-SVG-20010904/DTD/svg10.dtd">
<svg version="1.0" xmlns="http://www.w3.org/2000/svg"
 width="700.000000pt" height="700.000000pt" viewBox="0 0 700.000000 700.000000"
 preserveAspectRatio="xMidYMid meet">
<g transform="translate(0.000000,700.000000) scale(0.100000,-0.100000)"
fill="#000000" stroke="none">
<path d="M2 6783 l3 -218 3498 -1 3497 -1 0 219 0 218 -3500 0 -3500 0 2 -217z"/>
<path d="M1127 5880 c-11 -5 -17 -123 -7 -133 3 -3 68 -7 145 -10 280 -12 384
-82 453 -307 11 -36 23 -87 27 -115 4 -27 9 -63 12 -80 3 -16 7 -943 8 -2060
2 -1117 4 -2037 4 -2045 1 -13 42 -15 313 -13 172 1 318 2 324 2 7 1 10 336
10 1138 -1 626 0 1146 2 1155 4 15 81 17 1083 17 593 0 1079 -3 1080 -7 0 -4
2 -387 4 -852 2 -465 6 -861 8 -880 3 -19 8 -57 12 -85 18 -154 69 -280 143
-354 75 -75 181 -114 342 -127 140 -11 781 -10 789 1 8 10 7 123 -1 131 -3 2
-63 6 -134 8 -71 2 -151 9 -177 15 -113 27 -207 99 -248 189 -28 62 -56 160
-64 224 -4 28 -9 60 -12 72 -4 12 -7 939 -8 2062 -1 1122 -4 2045 -7 2050 -5
7 -600 11 -639 5 -3 -1 -6 -486 -7 -1078 0 -593 -1 -1080 -1 -1083 -2 -10
-2161 -5 -2162 5 0 6 -2 357 -4 780 -2 424 -6 784 -8 800 -3 17 -8 55 -11 85
-21 163 -70 285 -147 362 -70 70 -174 109 -324 124 -82 8 -780 11 -798 4z"/>
<path d="M0 438 l0 -438 3500 0 3500 0 -2 438 -3 437 -3497 0 -3498 0 0 -437z"/>
</g>
</svg>
